<?xml version="1.0" standalone="no"?>
<!DOCTYPE svg PUBLIC "-//W3C//DTD SVG 20010904//EN"
 "http://www.w3.org/TR/2001/REC-SVG-20010904/DTD/svg10.dtd">
<svg version="1.0" xmlns="http://www.w3.org/2000/svg"
 width="900.000000pt" height="900.000000pt" viewBox="0 0 900.000000 900.000000"
 preserveAspectRatio="xMidYMid meet">
<metadata>
Created by potrace 1.14, written by Peter Selinger 2001-2017
</metadata>
<g transform="translate(0.000000,900.000000) scale(0.100000,-0.100000)"
fill="#000000" stroke="none">
<path d="M0 4500 l0 -4500 4500 0 4500 0 0 4500 0 4500 -4500 0 -4500 0 0
-4500z m2485 3092 c354 -205 653 -377 683 -394 18 -10 93 -53 165 -95 73 -42
206 -119 297 -171 91 -52 219 -126 285 -165 66 -38 136 -79 155 -90 63 -35
631 -363 785 -452 83 -48 168 -97 190 -110 22 -12 110 -63 195 -112 222 -128
595 -343 890 -514 140 -80 401 -231 580 -334 179 -103 413 -238 520 -300 107
-61 283 -163 390 -225 107 -63 208 -120 223 -128 24 -12 27 -17 15 -27 -13
-13 -110 -70 -513 -303 -110 -63 -256 -147 -325 -187 -69 -40 -217 -125 -330
-190 -626 -360 -618 -356 -1180 -680 -113 -65 -277 -160 -365 -210 -88 -50
-263 -151 -390 -224 -126 -73 -291 -168 -365 -211 -74 -43 -252 -145 -395
-228 -730 -421 -1054 -608 -1095 -630 -25 -13 -81 -46 -125 -72 -156 -92 -484
-280 -489 -280 -3 0 -6 1452 -6 3226 l0 3226 38 -22 c20 -13 96 -57 167 -98z"/>
</g>
</svg>
